<svg version="1.1" fill="#ffffff" id="Lager_1" xmlns="http://www.w3.org/2000/svg" xmlns:xlink="http://www.w3.org/1999/xlink" x="0px" y="0px"
	 viewBox="0 0 448.4 121.3" style="enable-background:new 0 0 448.4 121.3;" xml:space="preserve">
<g>
	<path d="M5.1,39.4C4.6,21.8,16.3,10.7,28.6,6.8C43,2.3,56.2,4.7,67.8,14.6c0.9,0.8,1.7,1.6,2.4,2.5c1.8,2.3,1.7,4.2-0.3,6.3
		c-2,2-4.4,3.7-6.9,5.2c-1.4,0.8-2.9,0.8-4.3,0c-0.9-0.5-1.8-1.2-2.6-1.9c-7.6-6-15.9-7-24.6-3.1c-6.3,2.8-9.6,7.8-9.6,14.9
		c0.1,15.1,0.2,29.2,0,44.2c-0.2,10.9,7.2,15.8,14.7,17.3c6.7,1.4,12.7,0,17.6-5c2.7-2.8,4.3-6.1,4.5-10c0.2-3.8,0.2-7.2,0.1-11.1
		c-0.1-3.1-1.5-4.3-4.7-4.4c-3.3-0.1-6.6,0-9.9,0c-4.9,0-6.6-1.7-6.6-6.5c0-1.7,0-3.4,0-5.1c0.1-3.6,1.8-5.3,5.4-5.4
		c5.3-0.1,10.7,0,16,0c3.7,0,7.5,0,11.2,0c3.8,0.1,5.5,1.8,5.5,5.5c0.1,9.3,0.2,18.1,0,27.4c-0.3,14.4-11.1,27.6-25.9,30.8
		c-15,3.3-28.1-0.8-38.2-12.8c-4.6-5.5-6.4-12-6.4-19c-0.1-8.1,0-15.8,0-23.9C5.2,53.4,5.4,46.6,5.1,39.4z"/>
	<path d="M124,14.3c0-1.1,0-2.1,0-3.2c0.2-3.5,2.1-5.3,5.5-5.3c6-0.1,12,0,17.9,0c3.9,0,7.9-0.1,11.8,0.1
		c14.6,0.5,27.9,11.4,31.1,25.2c0.3,1.4,0.6,2.7,0.6,4.1c0.3,8.3,0.9,16.7-0.5,24.9c-1.4,8.2-5.3,15-12,20.1c-0.3,0.3-0.7,0.5-1,0.8
		c-2.4,2.2-2.6,3.7-1,6.5c4,7.2,8,14.4,12,21.5c0.2,0.4,0.4,0.8,0.6,1.1c1.9,2.3-0.3,5.2-2.7,5.4c-3.4,0.2-6.8,0.4-10.2-0.1
		c-2.6-0.3-4.4-2.1-5.5-4.4c-3.4-6.6-6.7-13.1-10.1-19.7c-0.4-0.9-0.8-1.7-1.3-2.6c-1.5-2.4-3.6-3.9-6.6-3.8c-2.1,0-4.3,0-6.4,0
		c-3.6,0.1-5.3,1.7-5.3,5.3c-0.1,6.3,0,12.6,0,18.9c0,4.6-1.8,6.4-6.4,6.4c-1.7,0-3.4,0.1-5.1,0c-3.2-0.2-5.1-2-5.3-5.3
		c-0.1-1.1,0-2.1,0-3.2c0-15.5,0-31,0-46.4S124,29.8,124,14.3z M140.8,45.3c0,6.1-0.1,12.2,0,18.2c0,3.3,1.7,4.9,4.9,5
		c5.2,0.1,10.4,0.1,15.7,0c5.4-0.1,9-2.9,11.2-7.6c0.5-1.1,0.9-2.4,1.1-3.6c1.1-6.9,0.7-13.8,0.3-20.7c-0.2-3.8-2.2-6.8-5-9.4
		c-2.6-2.4-5.7-3.7-9.1-4.3c-4.4-0.9-8.9-0.5-13.4-0.6c-4.3,0-5.8,1.5-5.8,5.8C140.8,33.8,140.8,39.5,140.8,45.3L140.8,45.3z"/>
	<path d="M264.2,93.3c-3.6,0-5.5,1.5-6.4,5c-1,3.9-1.9,7.9-2.9,11.8c-1,4-3,5.5-7,5.6c-2.2,0-4.5,0.1-6.7,0c-3.4-0.1-5-2.2-4.1-5.6
		c3.5-13.2,7.1-26.4,10.7-39.6c5.2-19.1,10.5-38.3,15.7-57.4c0.3-0.9,0.4-1.9,0.8-2.8c1.1-2.8,3.1-4.5,6.3-4.6c2.9,0,5.8,0,8.6,0
		c4.2,0,6.4,1.7,7.6,5.9c1.7,6.3,3.5,12.6,5.2,18.8c6.9,25.3,13.8,50.7,20.7,76c0.4,1.4,0.9,2.9,1.1,4.3c0.4,2.4-1,4.6-3.5,4.7
		c-3.1,0.2-6.2,0.3-9.3,0c-2.7-0.2-4.4-2.1-5-4.7c-1-3.7-1.8-7.5-2.8-11.2c-0.2-0.8-0.4-1.7-0.7-2.5c-1-2.5-2.8-4-5.6-4
		c-4,0-7.9,0-11.9,0C271.4,93.3,267.8,93.3,264.2,93.3z M275.2,76.8c2.5,0,4.9,0.1,7.4,0c2.8-0.1,4.2-1.9,3.8-4.7
		c-0.1-0.5-0.2-1-0.4-1.6c-2.9-11.7-5.7-23.4-8.6-35.1c-0.2-0.6-0.3-1.3-0.6-1.8c-0.7-1.4-2.2-1.4-3,0c-0.4,0.6-0.5,1.4-0.7,2.1
		c-0.5,1.9-0.9,3.7-1.3,5.6c-2.4,9.6-4.8,19.2-7.1,28.9c-1.3,5.2-0.2,6.7,5.1,6.7C271.6,76.8,273.4,76.8,275.2,76.8L275.2,76.8z"/>
	<path d="M443.8,107.6c0,1,0,1.9,0,2.9c-0.2,2.9-1.9,4.9-4.7,5.1c-2.3,0.2-4.7,0.2-7,0c-2.9-0.2-4.7-2-5-4.9
		c-0.1-1.1-0.1-2.1-0.1-3.2c0-13.5,0-28.2,0-41.7c0-1.1,0-2.1-0.1-3.2c0-0.6,0.1-2.2-0.9-2.5c-1.3-0.3-1.3,1.5-1.6,2.1
		c-0.4,1.1-0.7,2.2-1,3.4c-3.4,13.8-6.8,28.9-10.2,42.7c-0.2,0.8-0.4,1.7-0.7,2.5c-1.1,2.7-3.1,4.3-6.1,4.3c-2.2,0-4.5,0-6.7,0
		c-3.7-0.1-5.9-1.8-6.8-5.5c-2.4-9.4-4.6-18.9-7-28.3c-1.2-5-2.5-11.3-3.7-16.3c-0.1-0.2-0.1-0.4-0.1-0.6c-0.5-1.2-0.8-4.5-2.2-4.2
		c-1.9,0.3-1.2,3.5-1.3,4.8c-0.1,0.8,0,1.7,0,2.6c0,13.3,0,28,0,41.4c0,5-1.7,6.7-6.7,6.8c-1.7,0-3.4,0.1-5.1-0.1
		c-2.9-0.2-4.7-2-5-4.9c-0.1-1-0.1-1.9-0.1-2.9c0-31.4,0-62.8,0-94.2c0-5.1,0.9-8.4,7.9-7.9c2.3,0.2,4.7,0,7,0
		c4.2,0,6.2,1.5,7.4,5.6c1.3,4.7,2.6,9.5,3.9,14.2c4.2,15.2,8.3,30.5,12.5,45.7c0.2,0.7,0.4,1.4,0.6,2.2c0.3,1.1,0.7,3.5,2,3.4
		c1.4,0,1.6-2.5,2-3.5c0.3-0.7,0.4-1.4,0.6-2.1c5.2-19.2,10.4-38.3,15.7-57.5c0.4-1.3,0.7-2.7,1.2-4c1-2.5,2.8-4,5.6-4
		c3.5,0,7-0.1,10.6,0c3.5,0.1,5.2,1.8,5.3,5.4c0.1,4.5,0,9,0,13.5c0,12.1,0,24.1,0,36.2C443.8,76.4,443.8,92,443.8,107.6z"/>
</g>
</svg>
