<svg id="Lager_1" data-name="Lager 1" xmlns="http://www.w3.org/2000/svg" viewBox="0 0 401.36 300.54"><defs><style>.cls-1{fill:#ffffff;}</style></defs><title>gram_logo_wide</title><path class="cls-1" d="M100.17,271.19c-.53-16.11,10.21-26.21,21.48-29.78,13.2-4.18,25.24-1.92,35.88,7.11a15.81,15.81,0,0,1,2.23,2.31c1.63,2.08,1.6,3.89-.28,5.74a35.33,35.33,0,0,1-6.28,4.77,3.72,3.72,0,0,1-3.92,0,17.93,17.93,0,0,1-2.37-1.7c-6.94-5.51-14.57-6.37-22.54-2.82-5.75,2.56-8.79,7.15-8.76,13.66.06,13.77.16,26.7,0,40.47-.14,10,6.62,14.44,13.45,15.85,6.11,1.27,11.62,0,16.13-4.59a13.83,13.83,0,0,0,4.14-9.13c.18-3.51.17-6.61.07-10.12-.08-2.79-1.39-4-4.29-4s-6.05,0-9.08,0c-4.45,0-6-1.6-6.06-6,0-1.56,0-3.13,0-4.69.11-3.26,1.66-4.85,4.91-4.89,4.88-.07,9.76,0,14.65,0,3.42,0,6.84,0,10.25,0s5.05,1.61,5.07,5c0,8.5.16,16.57,0,25.06-.3,13.15-10.19,25.24-23.7,28.18-13.76,3-25.72-.7-35-11.71-4.21-5-5.83-11-5.89-17.4-.07-7.42,0-14.42,0-21.84C100.2,284.05,100.38,277.83,100.17,271.19Z" transform="translate(-100.15 -139.92)"/><path class="cls-1" d="M208.86,248.24c0-1,0-2,0-2.93.23-3.17,1.88-4.82,5.06-4.85,5.47-.06,10.94,0,16.41,0,3.61,0,7.23-.07,10.84.05,13.36.47,25.56,10.41,28.42,23.09a21,21,0,0,1,.59,3.76c.3,7.61.81,15.24-.47,22.79a28.12,28.12,0,0,1-11,18.4c-.31.24-.62.48-.91.74-2.15,2-2.35,3.35-.92,5.92q5.49,9.85,11,19.71a6.26,6.26,0,0,0,.58,1c1.73,2.06-.32,4.79-2.49,4.95a45.64,45.64,0,0,1-9.36-.06,6.77,6.77,0,0,1-5.07-4q-4.6-9-9.24-18c-.4-.78-.77-1.59-1.22-2.33a6.61,6.61,0,0,0-6-3.51c-2,0-3.91,0-5.86,0-3.34.08-4.85,1.53-4.88,4.84-.05,5.76,0,11.52,0,17.29,0,4.22-1.61,5.82-5.83,5.89-1.56,0-3.13.07-4.69,0a4.73,4.73,0,0,1-4.87-4.81c-.07-1,0-2,0-2.93q0-21.24,0-42.48T208.86,248.24Zm15.44,28.36c0,5.56,0,11.12,0,16.68,0,3,1.57,4.53,4.52,4.57q7.17.11,14.34,0c4.9-.09,8.23-2.64,10.25-7a12.84,12.84,0,0,0,1-3.34c1-6.3.65-12.64.3-19-.19-3.47-2-6.25-4.55-8.57a16.68,16.68,0,0,0-8.34-4c-4.07-.78-8.16-.5-12.25-.51-3.9,0-5.31,1.4-5.33,5.26,0,5.27,0,10.53,0,15.8Z" transform="translate(-100.15 -139.92)"/><path class="cls-1" d="M337.13,320.51c-3.3,0-5,1.35-5.86,4.58-.94,3.59-1.74,7.21-2.66,10.81S325.87,341,322.2,341c-2.05,0-4.1.06-6.15,0-3.11-.12-4.58-2-3.77-5.09q4.85-18.11,9.81-36.18,7.17-26.28,14.38-52.54a24.28,24.28,0,0,1,.73-2.53c1-2.6,2.85-4.15,5.76-4.16,2.64,0,5.27,0,7.91,0,3.88,0,5.86,1.58,6.93,5.41,1.6,5.74,3.16,11.48,4.73,17.23q9.48,34.75,18.95,69.51c.36,1.32.78,2.63,1,4a3.49,3.49,0,0,1-3.21,4.33,58,58,0,0,1-8.49,0c-2.48-.21-4-1.91-4.6-4.3-.88-3.4-1.68-6.83-2.52-10.24a16,16,0,0,0-.63-2.25,5.17,5.17,0,0,0-5.12-3.63c-3.61,0-7.23,0-10.84,0C343.77,320.5,340.45,320.47,337.13,320.51Zm10.12-15.1c2.24,0,4.49.08,6.73,0,2.58-.12,3.85-1.76,3.49-4.3-.07-.48-.23-.95-.34-1.42q-3.93-16.06-7.87-32.12a7.22,7.22,0,0,0-.55-1.66,1.47,1.47,0,0,0-2.74,0,7.54,7.54,0,0,0-.64,1.93c-.43,1.7-.81,3.42-1.23,5.12-2.18,8.81-4.38,17.61-6.53,26.42-1.17,4.78-.14,6.09,4.71,6.11h5Z" transform="translate(-100.15 -139.92)"/><path class="cls-1" d="M501.49,333.61c0,.88,0,1.76,0,2.64a4.56,4.56,0,0,1-4.34,4.65,45.21,45.21,0,0,1-6.44,0,4.63,4.63,0,0,1-4.56-4.48,28.17,28.17,0,0,1-.06-2.93c0-12.31,0-25.83,0-38.14,0-1,0-2-.11-2.92,0-.51.09-2-.86-2.29-1.15-.3-1.21,1.35-1.43,1.95a28.51,28.51,0,0,0-.91,3.08c-3.11,12.61-6.21,26.44-9.31,39a15.49,15.49,0,0,1-.63,2.25,5.7,5.7,0,0,1-5.61,3.9c-2.05,0-4.1,0-6.15,0-3.42-.07-5.4-1.6-6.25-5-2.16-8.62-4.25-17.25-6.37-25.88-1.12-4.55-2.25-10.32-3.38-14.87a3.52,3.52,0,0,0-.13-.57c-.46-1.05-.75-4.1-2-3.88-1.73.29-1.08,3.24-1.19,4.42-.07.77,0,1.56,0,2.34,0,12.21,0,25.64,0,37.85,0,4.62-1.53,6.14-6.12,6.19-1.56,0-3.13.07-4.69-.05a4.67,4.67,0,0,1-4.56-4.5,24.92,24.92,0,0,1-.06-2.63c0-28.72,0-57.43,0-86.14,0-4.63.86-7.71,7.18-7.24,2.14.16,4.3,0,6.44,0,3.88,0,5.65,1.34,6.73,5.14,1.23,4.32,2.38,8.66,3.56,13l11.4,41.82q.27,1,.56,2c.28,1,.62,3.16,1.87,3.13s1.49-2.32,1.82-3.23c.23-.64.41-1.3.59-2q7.16-26.28,14.32-52.56a30.51,30.51,0,0,1,1.11-3.64,5.32,5.32,0,0,1,5.14-3.66c3.22,0,6.45-.06,9.67,0s4.79,1.67,4.84,5c.07,4.1,0,8.2,0,12.31q0,16.56,0,33.11Z" transform="translate(-100.15 -139.92)"/><path class="cls-1" d="M169.19,375.19l21-15.44,4.18,5.7-2,1.44-2.76-3.76-7.49,5.5,1.9,2.58-1.94,1.42-1.89-2.58-9.64,7.07Z" transform="translate(-100.15 -139.92)"/><path class="cls-1" d="M192.42,369.64q3.36-2.9,6,.2t-.67,6L184.3,387.46q-3.36,2.9-6.05-.23t.7-6Zm3.79,4.4q1.51-1.31.4-2.6t-2.61,0l-13.48,11.61q-1.56,1.34-.47,2.62t2.68,0Z" transform="translate(-100.15 -139.92)"/><path class="cls-1" d="M199.82,378q3.11-3.17,6-.31t-.16,6.05l-12.45,12.7q-3.11,3.17-6.05.29t.19-6ZM204,382.1q1.4-1.43.17-2.62t-2.6.25l-12.45,12.7q-1.44,1.47-.24,2.65t2.66-.27Z" transform="translate(-100.15 -139.92)"/><path class="cls-1" d="M194.1,402.84l16.61-20.13,3.13,2.58a3.86,3.86,0,0,1,1.64,2.89,4.9,4.9,0,0,1-1.31,3.18l-10.94,13.25q-2.83,3.42-6,.8Zm18.19-13a2.4,2.4,0,0,0,.64-1.45,1.54,1.54,0,0,0-.65-1.23l-1.27-1-13.54,16.41,1.27,1.05q1.32,1.09,2.63-.5Z" transform="translate(-100.15 -139.92)"/><path class="cls-1" d="M218.66,420A2.66,2.66,0,0,1,218,420a3.26,3.26,0,0,1-.87-.41,2.42,2.42,0,0,1-.75-.69,2.08,2.08,0,0,1-.34-.81,3.47,3.47,0,0,1-1.43-.13,6.23,6.23,0,0,1-1.5-.69,6,6,0,0,1-1.67-1.43,2.82,2.82,0,0,1-.58-1.56,4.3,4.3,0,0,1,.33-1.79,13.15,13.15,0,0,1,1.09-2.12l1-1.54a13.66,13.66,0,0,1,1.14-1.59A9.24,9.24,0,0,1,215.6,406a8,8,0,0,1,1.44-.94,16.6,16.6,0,0,1,1.81-.78q.33-1.62.61-2.66c.18-.7.36-1.28.52-1.75a8.41,8.41,0,0,1,.52-1.19c.18-.33.37-.65.57-1l.84-1.34a5.26,5.26,0,0,1,2.4-2.36,3.15,3.15,0,0,1,2.73.54,3.71,3.71,0,0,1,1.19,1.09,2.52,2.52,0,0,1,.41,1.26,3.8,3.8,0,0,1-.23,1.42,7.71,7.71,0,0,1-.75,1.53l-1,1.56a8.46,8.46,0,0,1-1.2,1.53,10,10,0,0,1-1.4,1.17,12.24,12.24,0,0,1-1.61.94c-.57.28-1.19.55-1.85.81l-2,8.86a7.89,7.89,0,0,0,1.41-1.33,14.46,14.46,0,0,0,1.19-1.65l.54-.86,1.56,1-.59.94a16.64,16.64,0,0,1-2.06,2.68,8.81,8.81,0,0,1-2.43,1.85,1.34,1.34,0,0,0,.19.32,1.26,1.26,0,0,0,.35.31,1.08,1.08,0,0,0,1,.15Zm-.32-13.19a7.22,7.22,0,0,0-.86.48,3.87,3.87,0,0,0-.72.62,10.24,10.24,0,0,0-.7.85q-.36.49-.78,1.16l-1,1.59a4.88,4.88,0,0,0-.91,2.34,1.88,1.88,0,0,0,1.08,1.53,2.72,2.72,0,0,0,1.82.5Zm4.41-7.94a10.2,10.2,0,0,0-1,2.18,19.44,19.44,0,0,0-.63,2.39,9.49,9.49,0,0,0,2.16-1.16,7.26,7.26,0,0,0,1.91-2.14l.7-1.13a3.55,3.55,0,0,0,.56-1.44,1,1,0,0,0-.54-1,1.23,1.23,0,0,0-1.19-.16,2.72,2.72,0,0,0-1.08,1.1Z" transform="translate(-100.15 -139.92)"/><path class="cls-1" d="M233.78,427.81l4.93-11-3.07-1.37-4.93,11-2.2-1,10.64-23.82,2.2,1-4.74,10.62,3.07,1.37L244.42,404l2.2,1L236,428.8Z" transform="translate(-100.15 -139.92)"/><path class="cls-1" d="M247.82,409.91q1.45-4.19,5.32-2.86t2.44,5.54l-5.82,16.81q-1.45,4.2-5.35,2.85T242,426.72Zm5.48,1.9q.65-1.89-1-2.45t-2.24,1.34l-5.82,16.81q-.67,1.95.91,2.5t2.29-1.39Z" transform="translate(-100.15 -139.92)"/><path class="cls-1" d="M265.13,410.86l2.34.59-5.36,21.27Q261,437,257.06,436t-2.88-5.31l5.36-21.27,2.34.59-5.36,21.27q-.5,2,1.13,2.41t2.13-1.59Z" transform="translate(-100.15 -139.92)"/><path class="cls-1" d="M272.68,431c.07-.4.11-.72.13-1a2.9,2.9,0,0,0,0-.68,2.23,2.23,0,0,0-.17-.56c-.08-.17-.18-.37-.29-.58q-.38-.64-.77-1.2t-.81-1.13c-.28-.38-.56-.78-.85-1.2s-.58-.89-.88-1.41a2.92,2.92,0,0,1-.49-1.61,13.45,13.45,0,0,1,.19-1.88l.63-3.85q.69-4.26,4.7-3.6a3.83,3.83,0,0,1,2.86,1.55,5,5,0,0,1,.35,3.35l-.77,4.69-2.22-.36.72-4.38a3.28,3.28,0,0,0-.07-1.62,1.37,1.37,0,0,0-1.2-.81q-1.66-.27-2,1.58l-.62,3.82a4.66,4.66,0,0,0-.09,1.21,2.51,2.51,0,0,0,.32.89,18.29,18.29,0,0,0,1.58,2.41,23.26,23.26,0,0,1,1.65,2.42,4.8,4.8,0,0,1,.43.91,4.1,4.1,0,0,1,.2.93,6.11,6.11,0,0,1,0,1.09c0,.4-.09.85-.17,1.35l-.6,3.69a4.84,4.84,0,0,1-1.44,3,4.91,4.91,0,0,1-6.13-1,4.73,4.73,0,0,1-.44-3.31l.89-5.48,2.28.37-.84,5.13a3.29,3.29,0,0,0,.1,1.69,1.38,1.38,0,0,0,1.2.84,1.59,1.59,0,0,0,1.38-.27,2.25,2.25,0,0,0,.62-1.36Z" transform="translate(-100.15 -139.92)"/><path class="cls-1" d="M278.55,439.58l2.16-26,6.89.57-.2,2.43-4.49-.37-.76,9.13,3.16.26-.2,2.4-3.16-.26-.81,9.67,4.64.39-.2,2.37Z" transform="translate(-100.15 -139.92)"/><path class="cls-1" d="M296.13,440.41l.2-12.08-3.36-.06-.2,12.08-2.41,0,.42-26.09,2.41,0L293,425.9l3.36.05.19-11.63,2.41,0-.42,26.09Z" transform="translate(-100.15 -139.92)"/><path class="cls-1" d="M301.62,418.33q-.37-4.43,3.71-4.76t4.47,4.08l1.47,17.73q.37,4.42-3.74,4.76t-4.44-4.09Zm5.78-.48q-.17-2-1.87-1.85T304,418.13l1.47,17.73q.17,2.05,1.85,1.91t1.54-2.2Z" transform="translate(-100.15 -139.92)"/><path class="cls-1" d="M316.52,438.88l-4.2-25.75,2.38-.39,3.82,23.41,4.6-.75.38,2.35Z" transform="translate(-100.15 -139.92)"/><path class="cls-1" d="M327.69,436.88l-6.25-25.33,3.94-1a3.86,3.86,0,0,1,3.3.41,4.9,4.9,0,0,1,1.77,2.94l4.12,16.68q1.06,4.31-2.94,5.3Zm.43-22.34a2.4,2.4,0,0,0-.78-1.38,1.54,1.54,0,0,0-1.38-.21l-1.6.4,5.1,20.65,1.6-.4q1.66-.41,1.17-2.41Z" transform="translate(-100.15 -139.92)"/><path class="cls-1" d="M346.7,431.39l-9.48-24.31,3.78-1.48a4.52,4.52,0,0,1,3.55-.18,5,5,0,0,1,2.33,3l1.55,4a5,5,0,0,1,.3,3.73,4.5,4.5,0,0,1-2.73,2.25l-1.57.61,4.5,11.55Zm-2-22.14a2.61,2.61,0,0,0-1.07-1.44,2,2,0,0,0-1.71.07l-1.54.6,3.24,8.3,1.57-.61a2,2,0,0,0,1.25-1.07,2.49,2.49,0,0,0-.16-1.81Z" transform="translate(-100.15 -139.92)"/><path class="cls-1" d="M364.29,423.73q-1.73-2.57-3.41-5t-3.49-4.84a1.33,1.33,0,0,1-.24.15l-.26.13-1.17.57L361,425.37l-2.16,1.07L347.26,403l3.55-1.75a4,4,0,0,1,6.14,2.2l2.3,4.66q1.26,2.56,0,4.3,2,2.56,3.81,5.07t3.63,5.05Zm-9.39-18.88a3.57,3.57,0,0,0-1.25-1.61,2,2,0,0,0-1.76.23l-1.39.69,4.27,8.64,1.42-.7a2,2,0,0,0,1.19-1.17,2.38,2.38,0,0,0-.3-1.68Z" transform="translate(-100.15 -139.92)"/><path class="cls-1" d="M358.89,401.79q-2.29-3.8,1.21-5.91t5.82,1.67l9.18,15.23q2.29,3.8-1.24,5.93T368.08,417Zm5-3q-1-1.71-2.5-.83t-.41,2.58l9.19,15.23q1.06,1.76,2.5.9T373,414Z" transform="translate(-100.15 -139.92)"/><path class="cls-1" d="M381.42,413.57l-15.33-21.12,3.29-2.38a3.86,3.86,0,0,1,3.21-.86,4.89,4.89,0,0,1,2.75,2.06l10.09,13.91q2.61,3.59-.73,6Zm-8-20.86a2.39,2.39,0,0,0-1.24-1,1.54,1.54,0,0,0-1.35.32l-1.34,1L382,410.23l1.34-1q1.38-1,.17-2.68Z" transform="translate(-100.15 -139.92)"/><path class="cls-1" d="M379.2,382.18,381,380.6l14.37,16.59q2.91,3.36-.19,6t-6-.68L374.84,386l1.82-1.58L391,401q1.35,1.56,2.62.46t-.08-2.66Z" transform="translate(-100.15 -139.92)"/><path class="cls-1" d="M398.87,386.12l1.53-1.56,3.86,3.76a5.24,5.24,0,0,1,1.79,3,3.55,3.55,0,0,1-1.24,2.84q-2.9,3-6.05-.1L386,381.66q-3.23-3.15-.32-6.12,2.66-2.72,5.84.38l3.31,3.23-1.53,1.57L390,377.51a2.69,2.69,0,0,0-1.34-.82,1.45,1.45,0,0,0-1.24.56q-1.2,1.23.26,2.64l12.71,12.4q1.48,1.44,2.67.21a1.44,1.44,0,0,0,.51-1.25,2.67,2.67,0,0,0-.86-1.35Z" transform="translate(-100.15 -139.92)"/><path class="cls-1" d="M411.56,386.31l-18.14-15.18-1.87,2.24-1.87-1.57,5.27-6.3,1.87,1.57-1.87,2.24,18.14,15.18Z" transform="translate(-100.15 -139.92)"/><path class="cls-1" d="M414.17,370.27c-.33-.23-.6-.42-.82-.55a3,3,0,0,0-.61-.28,2.29,2.29,0,0,0-.57-.1h-.65q-.74.05-1.42.16l-1.37.23q-.69.13-1.45.23t-1.65.16a2.93,2.93,0,0,1-1.66-.27,13.66,13.66,0,0,1-1.6-1l-3.17-2.27q-3.51-2.51-1.15-5.81a3.81,3.81,0,0,1,2.65-1.88,5,5,0,0,1,3.16,1.17l3.87,2.76-1.31,1.83-3.61-2.58a3.27,3.27,0,0,0-1.48-.65,1.37,1.37,0,0,0-1.26.72q-1,1.37.54,2.45l3.15,2.25a4.82,4.82,0,0,0,1,.61,2.56,2.56,0,0,0,.94.1,18.1,18.1,0,0,0,2.86-.35,23.78,23.78,0,0,1,2.9-.4,4.92,4.92,0,0,1,1,0,4.15,4.15,0,0,1,.92.23,6,6,0,0,1,1,.48q.52.31,1.14.75l3,2.17a4.83,4.83,0,0,1,2.06,2.62,4.9,4.9,0,0,1-3.61,5.06,4.74,4.74,0,0,1-3.17-1.08l-4.51-3.23L410.7,372l4.23,3a3.27,3.27,0,0,0,1.55.66,1.39,1.39,0,0,0,1.28-.7,1.6,1.6,0,0,0,.36-1.36,2.26,2.26,0,0,0-.94-1.16Z" transform="translate(-100.15 -139.92)"/><path class="cls-1" d="M175,202.09a.36.36,0,0,1-.08-.58l4.72-6.25a.37.37,0,0,1,.58-.08l1.72,1.3a.37.37,0,0,1,.08.58l-2.9,3.85a.38.38,0,0,0,.11.6l5.34,4a.36.36,0,0,0,.58-.08l1.3-1.72a.36.36,0,0,1,.58-.08l1.72,1.3a.38.38,0,0,1,.11.6l-1.3,1.72a.36.36,0,0,0,.08.58l7.77,5.86a.38.38,0,0,1,.06.6L194.2,216a.36.36,0,0,1-.58.08Z" transform="translate(-100.15 -139.92)"/><path class="cls-1" d="M203.62,203.77a.38.38,0,0,1,0,.61l-1.47,1.57a.36.36,0,0,1-.58,0l-17-15.89a.36.36,0,0,1,0-.58l4.66-5a.72.72,0,0,1,.49-.24l1.55,0a.59.59,0,0,1,.52.18l7.26,6.8a.63.63,0,0,1,.22.51l.05,1.52a.65.65,0,0,0,.28.48l8.07,5.65a.37.37,0,0,1,.07.58l-1.49,1.6a.42.42,0,0,1-.58.06L197.58,196a.4.4,0,0,0-.58.06l-.48.51a.36.36,0,0,0,0,.58Zm-9.88-9.25a.36.36,0,0,0,.58,0l1.32-1.41a.57.57,0,0,0,0-.94l-4.53-4.24a.62.62,0,0,0-.45-.21.7.7,0,0,0-.46.26l-1.32,1.41a.36.36,0,0,0,0,.58Z" transform="translate(-100.15 -139.92)"/><path class="cls-1" d="M217.58,190.6a.37.37,0,0,1,0,.58l-5.94,5.12a.36.36,0,0,1-.58,0l-15.2-17.64a.36.36,0,0,1,0-.58l5.93-5.12a.37.37,0,0,1,.58,0l1.41,1.63a.37.37,0,0,1,0,.58l-3.65,3.15a.38.38,0,0,0,0,.61l4.37,5.07a.36.36,0,0,0,.58,0l1.66-1.43a.36.36,0,0,1,.58,0l1.41,1.63a.38.38,0,0,1,0,.6L207,186.33a.36.36,0,0,0,0,.58l4.37,5.07a.36.36,0,0,0,.58,0l3.65-3.15a.38.38,0,0,1,.58,0Z" transform="translate(-100.15 -139.92)"/><path class="cls-1" d="M218.08,168a.38.38,0,0,1-.13.59l-1.8,1.24a.36.36,0,0,1-.57-.1l-1.1-1.59a.54.54,0,0,0-.43-.28.59.59,0,0,0-.48.14l-1.38,1a.62.62,0,0,0-.3.4.54.54,0,0,0,.11.5l3.54,5.12a.61.61,0,0,0,.44.31.63.63,0,0,0,.48-.14l2.92-2a.69.69,0,0,1,.57-.12l1.5.27a.75.75,0,0,1,.47.29l5.65,8.17a.75.75,0,0,1,.11.54l-.27,1.5a.69.69,0,0,1-.32.49l-4.44,3.07a.66.66,0,0,1-.57.12l-1.53-.26a.72.72,0,0,1-.45-.31L218,183.79a.36.36,0,0,1,.1-.57l1.8-1.24a.36.36,0,0,1,.57.1l1.08,1.57a.61.61,0,0,0,.45.31.62.62,0,0,0,.48-.14l1.38-1a.58.58,0,0,0,.3-.4.6.6,0,0,0-.13-.53l-3.52-5.09a.61.61,0,0,0-.45-.31.58.58,0,0,0-.48.14l-2.9,2a.65.65,0,0,1-.57.12l-1.53-.26a.71.71,0,0,1-.44-.31l-5.67-8.2a.67.67,0,0,1-.13-.53l.28-1.55a.75.75,0,0,1,.34-.46l4.44-3.07a.8.8,0,0,1,.55-.15l1.52.3a.69.69,0,0,1,.47.29Z" transform="translate(-100.15 -139.92)"/><path class="cls-1" d="M221.16,160a.36.36,0,0,1,.17-.56l1.9-1a.38.38,0,0,1,.59.15l4.62,8.57a.36.36,0,0,0,.56.17l1.9-1a.36.36,0,0,0,.17-.56l-4.63-8.57a.37.37,0,0,1,.17-.56l2-1.05a.36.36,0,0,1,.56.17l11.06,20.48a.36.36,0,0,1-.17.56l-2,1.06a.37.37,0,0,1-.56-.17l-4.61-8.54a.36.36,0,0,0-.56-.17l-1.9,1a.36.36,0,0,0-.17.56l4.61,8.54a.38.38,0,0,1-.19.57l-1.9,1a.36.36,0,0,1-.56-.17Z" transform="translate(-100.15 -139.92)"/><path class="cls-1" d="M251.14,168.71a.39.39,0,0,1,.55.26l.81,2a.37.37,0,0,1-.23.54l-7.26,3a.36.36,0,0,1-.54-.23l-8.79-21.56a.36.36,0,0,1,.23-.54l2.06-.84a.37.37,0,0,1,.54.23l7.65,18.77a.36.36,0,0,0,.54.23Z" transform="translate(-100.15 -139.92)"/><path class="cls-1" d="M257.7,158.57a2.8,2.8,0,0,0,.08.5l2.81,9.35a.36.36,0,0,1-.28.51l-2.06.62a.36.36,0,0,1-.51-.28l-2.81-9.35a1.41,1.41,0,0,0-.24-.46l-7.45-11.26c-.15-.29-.11-.46.2-.56l2.37-.71a.44.44,0,0,1,.59.19l3.92,6.44c.24.36.48.28.5-.12l-.28-7.56c0-.26.11-.4.39-.48l2.37-.71c.3-.09.44,0,.47.35Z" transform="translate(-100.15 -139.92)"/><path class="cls-1" d="M284.25,140.29a.36.36,0,0,1,.45.37l2.13,21.78a.63.63,0,0,1-.17.53l-1,1.18a.63.63,0,0,1-.48.27l-5.4.53a.63.63,0,0,1-.53-.17l-1.18-1a.63.63,0,0,1-.27-.48l-2.13-21.78a.36.36,0,0,1,.37-.45l2.15-.21c.28,0,.45.08.48.37l1.95,19.91a.57.57,0,0,0,.73.6l1.67-.16a.57.57,0,0,0,.6-.73L281.7,141c0-.28.12-.43.4-.45Z" transform="translate(-100.15 -139.92)"/><path class="cls-1" d="M294.68,163.65c0,.29-.17.41-.45.4l-2.16,0c-.28,0-.41-.13-.4-.42l.39-23.28c0-.29.13-.41.42-.4l2.22,0a.43.43,0,0,1,.47.36l3,12.17a.23.23,0,0,0,.44-.09l.2-12c0-.29.17-.41.45-.4l2.16,0c.28,0,.41.13.4.42l-.39,23.28c0,.28-.13.41-.42.4l-2.22,0a.43.43,0,0,1-.47-.36l-3-12.13c-.06-.32-.44-.23-.45.09Z" transform="translate(-100.15 -139.92)"/><path class="cls-1" d="M309.09,164.48c0,.28-.21.39-.49.35l-2.14-.27a.36.36,0,0,1-.36-.46L309,141a.36.36,0,0,1,.46-.36l6.76.86a.72.72,0,0,1,.48.25l.93,1.24a.59.59,0,0,1,.16.53l-1.25,9.88a.63.63,0,0,1-.28.47l-1.21.93a.63.63,0,0,1-.53.16l-3.77-.48a.36.36,0,0,0-.46.36Zm1.71-13.43a.36.36,0,0,0,.36.46l1.89.24a.57.57,0,0,0,.74-.58l.78-6.16a.62.62,0,0,0-.1-.49.7.7,0,0,0-.48-.22l-1.89-.24a.36.36,0,0,0-.46.36Z" transform="translate(-100.15 -139.92)"/><path class="cls-1" d="M328.78,168.25a.36.36,0,0,1-.47.34l-2.1-.5a.4.4,0,0,1-.34-.47l.29-5.34a.42.42,0,0,0-.34-.47l-2.47-.58a.42.42,0,0,0-.52.27l-2,4.92a.43.43,0,0,1-.55.26l-2.1-.5a.36.36,0,0,1-.27-.52L327.14,144a.4.4,0,0,1,.52-.27l2.16.51a.45.45,0,0,1,.37.48Zm-4.45-10.37a.36.36,0,0,0,.27.52l1.36.32a.36.36,0,0,0,.47-.34l.33-5c0-.42-.31-.5-.49-.12Z" transform="translate(-100.15 -139.92)"/><path class="cls-1" d="M334,170.47a.63.63,0,0,1-.4-.38l-.65-1.38a.63.63,0,0,1,0-.55l7-19.27a.59.59,0,0,1,.38-.4l1.39-.68a.73.73,0,0,1,.54,0l5.1,1.84a.72.72,0,0,1,.41.35l.64,1.41a.59.59,0,0,1,0,.55l-1.28,3.55a.36.36,0,0,1-.53.25l-2-.73a.38.38,0,0,1-.28-.54l.66-1.82a.62.62,0,0,0,0-.5.72.72,0,0,0-.41-.35l-1.58-.57a.72.72,0,0,0-.54,0,.62.62,0,0,0-.31.39l-5.69,15.75a.57.57,0,0,0,.4.85l1.58.57a.57.57,0,0,0,.85-.4l.65-1.79a.38.38,0,0,1,.56-.24l2,.73a.36.36,0,0,1,.25.53l-1.29,3.58a.63.63,0,0,1-.38.4l-1.38.65a.63.63,0,0,1-.55,0Z" transform="translate(-100.15 -139.92)"/><path class="cls-1" d="M354.1,178.67c0,.3-.24.41-.5.29l-2-1a.43.43,0,0,1-.27-.52l1.18-8.4c0-.37-.21-.5-.51-.25l-1.4,1.25a1.31,1.31,0,0,0-.31.41l-2.54,5.15a.38.38,0,0,1-.58.17l-1.93-1a.36.36,0,0,1-.19-.55l10.31-20.87a.36.36,0,0,1,.55-.19l1.93,1a.38.38,0,0,1,.22.57l-3.64,7.36c-.18.37.07.57.38.3l6.76-6a.45.45,0,0,1,.57-.07l2.13,1.05c.28.14.32.37.07.57l-8.23,7.22a.88.88,0,0,0-.25.51Z" transform="translate(-100.15 -139.92)"/><path class="cls-1" d="M366.49,186.48a.36.36,0,0,1-.56.17l-1.81-1.17a.4.4,0,0,1-.17-.56L366,180a.42.42,0,0,0-.16-.56L363.72,178a.42.42,0,0,0-.58.08l-3.58,3.95a.43.43,0,0,1-.6.06L357.15,181a.36.36,0,0,1-.08-.58l16-17.33a.4.4,0,0,1,.58-.08l1.86,1.21a.45.45,0,0,1,.19.58Zm-.7-11.26a.36.36,0,0,0,.08.58l1.17.76a.36.36,0,0,0,.56-.17l2-4.57c.17-.38-.12-.57-.42-.27Z" transform="translate(-100.15 -139.92)"/><path class="cls-1" d="M370.85,190.44a.63.63,0,0,1-.25-.49l-.14-1.52a.63.63,0,0,1,.15-.53l13-15.79a.59.59,0,0,1,.49-.25l1.54-.17a.72.72,0,0,1,.51.18l4.18,3.45a.72.72,0,0,1,.27.47l.12,1.54a.58.58,0,0,1-.15.53l-2.4,2.91a.36.36,0,0,1-.58.06L386,179.45a.38.38,0,0,1-.08-.6l1.23-1.49a.63.63,0,0,0,.18-.47.72.72,0,0,0-.27-.47l-1.27-1a.72.72,0,0,0-.51-.18.62.62,0,0,0-.42.27l-10.66,12.91a.57.57,0,0,0,.09.94l1.27,1.05a.7.7,0,0,0,.49.2.69.69,0,0,0,.44-.29l3.13-3.79a.36.36,0,0,0-.06-.58l-.49-.4a.37.37,0,0,1-.06-.58l1.37-1.71a.38.38,0,0,1,.6-.08l2.84,2.34a.38.38,0,0,1,0,.6l-6.26,7.58a.63.63,0,0,1-.49.25l-1.52.14a.63.63,0,0,1-.53-.15Z" transform="translate(-100.15 -139.92)"/><path class="cls-1" d="M386.15,204.08a.37.37,0,0,1-.58,0l-5.47-5.6a.36.36,0,0,1,0-.58l16.64-16.25a.35.35,0,0,1,.58,0l5.47,5.6a.37.37,0,0,1,0,.58l-1.54,1.51a.37.37,0,0,1-.58,0l-3.37-3.45a.38.38,0,0,0-.6,0l-4.78,4.67a.36.36,0,0,0,0,.58l1.53,1.56a.36.36,0,0,1,0,.58l-1.54,1.51a.38.38,0,0,1-.6,0l-1.53-1.56a.36.36,0,0,0-.58,0l-4.78,4.67a.36.36,0,0,0,0,.58l3.37,3.45a.38.38,0,0,1,0,.58Z" transform="translate(-100.15 -139.92)"/><path class="cls-1" d="M407.35,193a.36.36,0,0,1,.58.07l4.23,5.38a.72.72,0,0,1,.16.52l-.21,1.53a.6.6,0,0,1-.26.49l-16.11,12.65a.62.62,0,0,1-.54.14l-1.51-.18a.63.63,0,0,1-.49-.26L389,208a.36.36,0,0,1,.07-.58Zm-14,14.89a.36.36,0,0,0-.07.58l1.17,1.5a.57.57,0,0,0,.94.11l13.17-10.34a.62.62,0,0,0,.27-.42.72.72,0,0,0-.16-.52l-1.17-1.5a.38.38,0,0,0-.6,0Z" transform="translate(-100.15 -139.92)"/><path class="cls-1" d="M298.24,381.59c.23,0,.34.1.34.34v4.24c0,.23-.1.34-.34.34h-6.67c-.23,0-.34-.1-.34-.34v-9.22a.58.58,0,0,1,.15-.41l.88-.88a.57.57,0,0,1,.44-.18h2.89a.48.48,0,0,0,.39-.13.49.49,0,0,0,.15-.41v-5.06a.44.44,0,0,0-.15-.39.47.47,0,0,0-.39-.13h-1.39a.47.47,0,0,0-.39.13.44.44,0,0,0-.16.39v1.58c0,.23-.1.34-.34.34h-1.76c-.23,0-.34-.1-.34-.34v-3.08a.51.51,0,0,1,.15-.41l.88-.93a.65.65,0,0,1,.44-.15h4.39a.65.65,0,0,1,.44.15l.88.93a.51.51,0,0,1,.15.41v8.09a.59.59,0,0,1-.15.41l-.88.88a.56.56,0,0,1-.44.18h-2.89a.47.47,0,0,0-.39.13.49.49,0,0,0-.16.41v5.22a.3.3,0,0,0,.34.34h1.81a.3.3,0,0,0,.34-.34v-1.76c0-.23.1-.34.34-.34Z" transform="translate(-100.15 -139.92)"/><path class="cls-1" d="M308.63,366.87a.59.59,0,0,1,.41.15l.88.9a.48.48,0,0,1,.18.41V385a.51.51,0,0,1-.18.41l-.88.88a.51.51,0,0,1-.41.18h-4.42a.51.51,0,0,1-.41-.18l-.88-.88a.52.52,0,0,1-.18-.41V368.34a.49.49,0,0,1,.18-.41l.88-.9a.58.58,0,0,1,.41-.15Zm-1,3a.51.51,0,0,0-.13-.39.57.57,0,0,0-.41-.13h-1.34a.57.57,0,0,0-.41.13.51.51,0,0,0-.13.39v13.64a.56.56,0,0,0,.13.41.57.57,0,0,0,.41.13h1.34a.57.57,0,0,0,.41-.13.56.56,0,0,0,.13-.41Z" transform="translate(-100.15 -139.92)"/><path class="cls-1" d="M317.68,386.17c0,.23-.13.34-.36.34h-1.78c-.23,0-.34-.1-.34-.34V370.25a.3.3,0,0,0-.34-.34h-.49c-.26,0-.34-.16-.28-.41l.7-2.38a.36.36,0,0,1,.39-.28h2.15c.23,0,.36.1.36.34Z" transform="translate(-100.15 -139.92)"/><path class="cls-1" d="M327.08,371.77c-.23,0-.34-.1-.34-.34v-1.58a.45.45,0,0,0-.15-.39.47.47,0,0,0-.39-.13h-1.4a.47.47,0,0,0-.39.13.45.45,0,0,0-.15.39v5.06a.49.49,0,0,0,.15.41.48.48,0,0,0,.39.13h2.89a.57.57,0,0,1,.44.18l.88.88a.58.58,0,0,1,.15.41V385a.55.55,0,0,1-.15.41l-.88.9a.56.56,0,0,1-.44.18h-4.39a.56.56,0,0,1-.44-.18l-.88-.9a.55.55,0,0,1-.16-.41V368.36A.51.51,0,0,1,322,368l.88-.93a.65.65,0,0,1,.44-.15h4.39a.65.65,0,0,1,.44.15l.88.93a.51.51,0,0,1,.15.41v3.08c0,.23-.1.34-.34.34Zm-.34,6.69a.5.5,0,0,0-.15-.41.48.48,0,0,0-.39-.13h-1.4a.48.48,0,0,0-.39.13.5.5,0,0,0-.15.41v5a.49.49,0,0,0,.15.41.48.48,0,0,0,.39.13h1.4a.48.48,0,0,0,.39-.13.49.49,0,0,0,.15-.41Z" transform="translate(-100.15 -139.92)"/><path class="cls-1" d="M256.32,369.24v16.25h27.45V369.24Zm8.12,3.36a.16.16,0,0,1-.18.18h-2.13c-.13,0-.18.07-.18.2v3c0,.13.06.18.18.18h1c.13,0,.18.06.18.18v1c0,.13-.06.2-.18.2h-1c-.13,0-.18.06-.18.18v3c0,.13.06.18.18.18h2.13a.17.17,0,0,1,.18.18v1a.16.16,0,0,1-.18.18H260.8c-.13,0-.18-.06-.18-.18V371.65c0-.13.06-.18.18-.18h3.46a.16.16,0,0,1,.18.18Zm6.1,1.35c0,.13-.07.18-.2.18h-1c-.13,0-.18-.06-.18-.18v-.85a.24.24,0,0,0-.08-.21.25.25,0,0,0-.21-.07h-.74a.27.27,0,0,0-.21.07.24.24,0,0,0-.08.21v2.75a.27.27,0,0,0,.08.22.28.28,0,0,0,.21.07h1.57a.31.31,0,0,1,.24.1l.48.47a.34.34,0,0,1,.1.22v4.39a.34.34,0,0,1-.1.22L270,382a.31.31,0,0,1-.24.1h-2.38a.29.29,0,0,1-.24-.1l-.49-.47a.32.32,0,0,1-.08-.22v-1.67c0-.13.06-.18.18-.18h1c.13,0,.18.06.18.18v.84a.27.27,0,0,0,.08.22.28.28,0,0,0,.21.07h.74a.26.26,0,0,0,.21-.07.27.27,0,0,0,.08-.22v-2.73a.27.27,0,0,0-.08-.22.26.26,0,0,0-.21-.07h-1.55a.29.29,0,0,1-.24-.1l-.49-.48a.32.32,0,0,1-.08-.22v-4.4a.3.3,0,0,1,.08-.22l.49-.49a.33.33,0,0,1,.24-.08h2.38a.36.36,0,0,1,.24.08l.48.49a.3.3,0,0,1,.1.22Zm6.18-1.33a.18.18,0,0,1-.2.2h-1.11c-.13,0-.18.06-.18.18v8.94c0,.13-.06.18-.18.18h-1c-.13,0-.2-.06-.2-.18V373c0-.13-.06-.18-.18-.18h-1.11c-.13,0-.18-.07-.18-.2v-1c0-.13.06-.18.18-.18h3.91c.13,0,.2.06.2.18Zm3,8.9a.37.37,0,0,1-.1.24l-.28.27a.28.28,0,0,1-.22.1h-.66a.28.28,0,0,1-.22-.1l-.28-.27a.36.36,0,0,1-.08-.24v-.64a.36.36,0,0,1,.08-.24l.28-.27a.28.28,0,0,1,.22-.1h.66a.28.28,0,0,1,.22.1l.28.27a.37.37,0,0,1,.1.24Z" transform="translate(-100.15 -139.92)"/><path class="cls-1" d="M277.5,220.19v-5.45q0-2,0-3.9t0-3.9l-1.95,13.25h-1.47l-1.93-13.25q0,2,0,3.9t0,3.9v5.45h-1.53v-18h2.23l1.91,14.08,1.91-14.08h2.3v18Z" transform="translate(-100.15 -139.92)"/><path class="cls-1" d="M286.28,220.19l-.39-3h-2.69l-.39,3h-1.62l2.47-18h1.95l2.34,18Zm-.59-4.56q-.28-2.32-.57-4.59t-.55-4.65q-.29,2.39-.58,4.65t-.6,4.59Z" transform="translate(-100.15 -139.92)"/><path class="cls-1" d="M290.16,220.19v-18h1.66v16.38H295v1.64Z" transform="translate(-100.15 -139.92)"/><path class="cls-1" d="M303.91,220.19v-5.45q0-2,0-3.9t0-3.9L302,220.19h-1.47l-1.93-13.25q0,2,0,3.9t0,3.9v5.45h-1.53v-18h2.23l1.91,14.08,1.91-14.08h2.3v18Z" transform="translate(-100.15 -139.92)"/><path class="cls-1" d="M308,205q0-3.07,2.82-3.07t2.85,3.07v12.29q0,3.07-2.85,3.07T308,217.32Zm.44-3.94v-2.74H310v2.74ZM312,205q0-1.38-1.18-1.38T309.67,205v12.29c0,.95.39,1.42,1.16,1.42s1.18-.47,1.18-1.42Zm-.29-3.94v-2.74h1.51v2.74Z" transform="translate(-100.15 -139.92)"/></svg>
